<?xml version="1.0" encoding="iso-8859-1"?>
<!-- Generator: Adobe Illustrator 19.0.0, SVG Export Plug-In . SVG Version: 6.00 Build 0)  -->
<svg version="1.1" id="Capa_1" xmlns="http://www.w3.org/2000/svg" xmlns:xlink="http://www.w3.org/1999/xlink" x="0px" y="0px"
	 viewBox="0 0 496.004 496.004" style="enable-background:new 0 0 496.004 496.004;" xml:space="preserve">
<g>
	<g>
		<path d="M495.979,222.29c-0.8-26.648-21.52-48.824-47.976-53.384v-40.904c0-39.696-32.304-72-72-72h-256
			c-39.696,0-72,32.304-72,72v40.904c-26.456,4.56-47.176,26.744-47.976,53.376c-0.464,15.296,5.144,29.752,15.784,40.712
			c8.76,9.024,19.976,14.712,32.192,16.448v88.56c0,22.056,17.944,40,40,40h9.752l8,32h60.496l8-32h147.504l8,32h60.496l8-32h9.752
			c22.056,0,40-17.944,40-40v-88.56c12.216-1.728,23.432-7.416,32.192-16.44C490.835,252.042,496.435,237.586,495.979,222.29z
			 M64.003,128.002c0-30.88,25.12-56,56-56h256c30.88,0,56,25.12,56,56v40.352c-26.96,2.992-48,25.896-48,53.64v26.216
			c-6.704-5.08-14.96-8.208-24-8.208h-80c-13.128,0-24.704,6.448-32,16.248c-7.296-9.8-18.872-16.248-32-16.248h-80
			c-9.04,0-17.296,3.128-24,8.208v-24.296c0-14.816-6.136-29.432-16.824-40.112c-8.712-8.696-19.608-14.016-31.176-15.4V128.002z
			 M153.755,424.002h-35.504l-4-16h43.504L153.755,424.002z M377.755,424.002h-35.504l-4-16h43.504L377.755,424.002z
			 M468.707,251.858c-7.6,7.832-17.792,12.144-28.704,12.144h-8v104c0,13.232-10.768,24-24,24h-320c-13.232,0-24-10.768-24-24v-104
			h-8c-10.912,0-21.104-4.312-28.704-12.144c-7.6-7.832-11.6-18.16-11.272-29.096c0.64-21.344,19.456-38.728,41.936-38.76
			c0.008,0,0.024,0,0.04,0c9.504,0,18.696,3.944,25.872,11.12c7.704,7.696,12.128,18.192,12.128,28.792v56.088v72v8h32v-16h-16v-64
			c0-13.232,10.768-24,24-24h80c13.232,0,24,10.768,24,24v64h-96v16h208v-16h-96v-64c0-13.232,10.768-24,24-24h80
			c13.232,0,24,10.768,24,24v64h-16v16h32v-8v-72v-58.008c0-20.952,17.04-37.992,37.992-37.992c22.512,0,41.352,17.392,41.992,38.76
			C480.315,233.698,476.307,244.026,468.707,251.858z"/>
	</g>
</g>
<g>
	<g>
		<path d="M440.003,200.002c-13.232,0-24,10.768-24,24s10.768,24,24,24s24-10.768,24-24S453.235,200.002,440.003,200.002z
			 M440.003,232.002c-4.408,0-8-3.592-8-8s3.592-8,8-8c4.408,0,8,3.592,8,8S444.411,232.002,440.003,232.002z"/>
	</g>
</g>
<g>
	<g>
		<path d="M56.003,200.002c-13.232,0-24,10.768-24,24s10.768,24,24,24s24-10.768,24-24S69.235,200.002,56.003,200.002z
			 M56.003,232.002c-4.408,0-8-3.592-8-8s3.592-8,8-8s8,3.592,8,8S60.411,232.002,56.003,232.002z"/>
	</g>
</g>
<g>
	<g>
		<rect x="336.003" y="112.002" width="16" height="16"/>
	</g>
</g>
<g>
	<g>
		<rect x="312.003" y="136.002" width="16" height="16"/>
	</g>
</g>
<g>
	<g>
		<rect x="336.003" y="160.002" width="16" height="16"/>
	</g>
</g>
<g>
	<g>
		<rect x="360.003" y="136.002" width="16" height="16"/>
	</g>
</g>
<g>
	<g>
		<rect x="144.003" y="112.002" width="16" height="16"/>
	</g>
</g>
<g>
	<g>
		<rect x="120.003" y="136.002" width="16" height="16"/>
	</g>
</g>
<g>
	<g>
		<rect x="144.003" y="160.002" width="16" height="16"/>
	</g>
</g>
<g>
	<g>
		<rect x="168.003" y="136.002" width="16" height="16"/>
	</g>
</g>
<g>
	<g>
		<rect x="240.003" y="112.002" width="16" height="16"/>
	</g>
</g>
<g>
	<g>
		<rect x="216.003" y="136.002" width="16" height="16"/>
	</g>
</g>
<g>
	<g>
		<rect x="240.003" y="160.002" width="16" height="16"/>
	</g>
</g>
<g>
	<g>
		<rect x="264.003" y="136.002" width="16" height="16"/>
	</g>
</g>
<g>
</g>
<g>
</g>
<g>
</g>
<g>
</g>
<g>
</g>
<g>
</g>
<g>
</g>
<g>
</g>
<g>
</g>
<g>
</g>
<g>
</g>
<g>
</g>
<g>
</g>
<g>
</g>
<g>
</g>
</svg>
