<?xml version="1.0" encoding="iso-8859-1"?>
<!-- Generator: Adobe Illustrator 19.0.0, SVG Export Plug-In . SVG Version: 6.00 Build 0)  -->
<svg version="1.1" id="Capa_1" xmlns="http://www.w3.org/2000/svg" xmlns:xlink="http://www.w3.org/1999/xlink" x="0px" y="0px"
	 viewBox="0 0 397.6 397.6" style="enable-background:new 0 0 397.6 397.6;" xml:space="preserve">
<g>
	<g>
		<path d="M389.6,148H206.4V83.2c0-13.6,10.4-24,24-24c13.6,0,24,10.4,24,24v18.4c0,4.8,3.2,8,8,8s8-3.2,8-8V83.2
			c0-22.4-17.6-40-40-40c-22.4,0-40,17.6-40,40V148H8c-4.8,0-8,3.2-8,8v160c0,4.8,3.2,8,8,8h24v22.4c0,4.8,3.2,8,8,8h317.6
			c4.8,0,8-3.2,8-8V324h24c4.8,0,8-3.2,8-8V156C397.6,151.2,394.4,148,389.6,148z M16,308V164h174.4v144H40H16z M348.8,339.2H48
			v-14.4h150.4h150.4V339.2z M380.8,308h-24H206.4V164h174.4V308z"/>
	</g>
</g>
<g>
	<g>
		<path d="M157.6,213.6c-12.8,0-22.4,9.6-22.4,22.4s10.4,22.4,22.4,22.4S180,248.8,180,236S170.4,213.6,157.6,213.6z M157.6,243.2
			c-4,0-6.4-2.4-6.4-6.4s3.2-6.4,6.4-6.4s6.4,2.4,6.4,6.4S161.6,243.2,157.6,243.2z"/>
	</g>
</g>
<g>
	<g>
		<path d="M239.2,213.6c-12.8,0-22.4,9.6-22.4,22.4s10.4,22.4,22.4,22.4s22.4-9.6,22.4-22.4S252,213.6,239.2,213.6z M239.2,243.2
			c-4,0-6.4-2.4-6.4-6.4s3.2-6.4,6.4-6.4c3.2,0,6.4,2.4,6.4,6.4S243.2,243.2,239.2,243.2z"/>
	</g>
</g>
<g>
</g>
<g>
</g>
<g>
</g>
<g>
</g>
<g>
</g>
<g>
</g>
<g>
</g>
<g>
</g>
<g>
</g>
<g>
</g>
<g>
</g>
<g>
</g>
<g>
</g>
<g>
</g>
<g>
</g>
</svg>
