<?xml version="1.0" encoding="iso-8859-1"?>
<!-- Generator: Adobe Illustrator 19.0.0, SVG Export Plug-In . SVG Version: 6.00 Build 0)  -->
<svg version="1.1" id="Layer_1" xmlns="http://www.w3.org/2000/svg" xmlns:xlink="http://www.w3.org/1999/xlink" x="0px" y="0px"
	 viewBox="0 0 521 521" style="enable-background:new 0 0 521 521;" xml:space="preserve">
<g>
	<g>
		<path d="M412.461,184.523H108.538c-5.994,0-10.843,4.857-10.843,10.852s4.849,10.852,10.843,10.852h303.923
			c5.994,0,10.859-4.857,10.859-10.852S418.455,184.523,412.461,184.523z"/>
	</g>
</g>
<g>
	<g>
		<path d="M455.883,10.852H423.32C423.32,4.858,418.455,0,412.461,0h-130.25c-5.994,0-10.859,4.857-10.859,10.852H251.35
			C251.35,4.858,246.485,0,240.491,0H110.24c-5.994,0-10.86,4.857-10.86,10.852H65.133c-6.011,0-10.859,4.865-10.859,10.859v477.57
			c0,6.01,4.849,10.875,10.859,10.875h10.843c0,5.979,4.866,10.844,10.86,10.844s10.859-4.865,10.859-10.844H423.32
			c0,5.979,4.85,10.844,10.844,10.844c5.994,0,10.859-4.865,10.859-10.844h10.859c5.979,0,10.844-4.865,10.844-10.875V21.711
			C466.727,15.717,461.861,10.852,455.883,10.852z M75.976,32.562h369.047v108.539H75.976V32.562z M445.023,488.438H75.976v-43.406
			h130.251c0,5.979,4.865,10.844,10.859,10.844h86.828c5.994,0,10.859-4.865,10.859-10.844h130.25V488.438z M445.024,423.312H75.976
			v-260.5h369.048V423.312z"/>
	</g>
</g>
<g>
	<g>
		<path d="M130.258,54.274c-17.999,0-32.562,14.58-32.562,32.562s14.563,32.562,32.562,32.562c17.966,0,32.562-14.58,32.562-32.562
			S148.223,54.274,130.258,54.274z M130.257,97.688c-5.994,0-10.859-4.873-10.859-10.852c0-1.98,0.525-3.832,1.462-5.422
			c1.877,3.236,5.374,5.422,9.397,5.422c4.007,0,7.504-2.186,9.381-5.422c0.922,1.59,1.462,3.442,1.462,5.422
			C141.1,92.815,136.235,97.688,130.257,97.688z"/>
	</g>
</g>
<g>
	<g>
		<path d="M217.086,54.274c-17.982,0-32.562,14.58-32.562,32.562s14.58,32.562,32.562,32.562s32.562-14.58,32.562-32.562
			S235.068,54.274,217.086,54.274z M217.085,97.688c-5.994,0-10.859-4.873-10.859-10.852c0.001-1.98,0.541-3.832,1.462-5.422
			c1.877,3.236,5.375,5.422,9.397,5.422c4.022,0,7.504-2.186,9.396-5.422c0.922,1.59,1.463,3.442,1.463,5.422
			C227.944,92.815,223.062,97.688,217.085,97.688z"/>
	</g>
</g>
<g>
	<g>
		<path d="M303.914,54.274c-17.983,0-32.562,14.58-32.562,32.562s14.579,32.562,32.562,32.562c17.998,0,32.562-14.58,32.562-32.562
			S321.912,54.274,303.914,54.274z M303.915,97.688c-5.979,0-10.844-4.873-10.844-10.852c-0.001-1.98,0.539-3.832,1.462-5.422
			c1.875,3.236,5.373,5.422,9.381,5.422c4.006,0,7.504-2.186,9.381-5.422c0.938,1.59,1.479,3.442,1.479,5.422
			C314.774,92.815,309.892,97.688,303.915,97.688z"/>
	</g>
</g>
<g>
	<g>
		<path d="M390.758,54.274c-17.999,0-32.562,14.58-32.562,32.562s14.563,32.562,32.562,32.562c17.967,0,32.562-14.58,32.562-32.562
			S408.724,54.274,390.758,54.274z M390.757,97.688c-5.994,0-10.859-4.873-10.859-10.852c0-1.98,0.524-3.832,1.463-5.422
			c1.875,3.236,5.373,5.422,9.396,5.422c4.006,0,7.504-2.186,9.381-5.422c0.922,1.59,1.463,3.442,1.463,5.422
			C401.601,92.815,396.736,97.688,390.757,97.688z"/>
	</g>
</g>
<g>
</g>
<g>
</g>
<g>
</g>
<g>
</g>
<g>
</g>
<g>
</g>
<g>
</g>
<g>
</g>
<g>
</g>
<g>
</g>
<g>
</g>
<g>
</g>
<g>
</g>
<g>
</g>
<g>
</g>
</svg>
