<?xml version="1.0" encoding="iso-8859-1"?>
<!-- Generator: Adobe Illustrator 19.0.0, SVG Export Plug-In . SVG Version: 6.00 Build 0)  -->
<svg version="1.1" id="Capa_1" xmlns="http://www.w3.org/2000/svg" xmlns:xlink="http://www.w3.org/1999/xlink" x="0px" y="0px"
	 viewBox="0 0 419.244 419.244" style="enable-background:new 0 0 419.244 419.244;" xml:space="preserve">
<g>
	<g>
		<path d="M392.67,405.629l-67.76-157.6l-64-148.96c-1.732-4.065-6.431-5.956-10.495-4.225c-1.901,0.81-3.415,2.324-4.225,4.225
			l-57.12,132.56l-22.4,52.08l-49.12-113.36c-1.732-4.065-6.431-5.956-10.495-4.225c-1.901,0.81-3.415,2.324-4.225,4.225
			l-46.16,106.64l-56,128.56c-1.767,4.049,0.083,8.765,4.132,10.532c1.018,0.444,2.117,0.672,3.228,0.668h377.28
			c4.418-0.004,7.997-3.588,7.993-8.007C393.303,407.673,393.087,406.614,392.67,405.629z M253.47,122.349l51.92,120.72h-18.24
			l-32.96-36.4c-2.972-3.27-8.031-3.511-11.301-0.539c-0.513,0.466-0.963,0.997-1.339,1.579l-12.32,19.04h-20.64L253.47,122.349z
			 M110.19,193.389l41.04,94.88h-22.4c-2.72,0.005-5.251,1.391-6.72,3.68l-8,12.72l-20.64-29.12c-1.492-2.151-3.942-3.436-6.56-3.44
			H76.27L110.19,193.389z M20.59,400.749l48.72-112.64h13.44l24.96,35.6c1.492,2.151,3.942,3.436,6.56,3.44
			c2.663-0.058,5.122-1.438,6.56-3.68l12.32-19.04h24.96l41.68,96L20.59,400.749z M217.31,400.749l-41.92-96.8l26.32-61.2h32
			c2.72-0.005,5.251-1.391,6.72-3.68l8.88-13.68l28.32,31.28c1.512,1.676,3.663,2.635,5.92,2.64h28.64l60.88,141.68L217.31,400.749z
			"/>
	</g>
</g>
<g>
	<g>
		<path d="M127.63,34.909c-7.547-19.441-29.426-29.082-48.866-21.534C64.289,18.994,54.73,32.902,54.67,48.429
			c-0.079,1.386-0.079,2.774,0,4.16c-18.914,8.784-27.125,31.238-18.341,50.152c6.083,13.097,19.103,21.578,33.541,21.848l0.4,0.32
			h56c24.853,0.376,45.304-19.467,45.68-44.32C172.325,55.736,152.483,35.285,127.63,34.909z M126.75,109.149h-56
			c-11.974,1.237-22.683-7.466-23.92-19.44s7.466-22.683,19.44-23.92c4.331-0.873,7.135-5.091,6.262-9.423
			c-0.067-0.331-0.154-0.658-0.262-0.977c-0.781-2.238-1.186-4.59-1.2-6.96c-0.068-12.018,9.618-21.815,21.636-21.884
			c10.631-0.061,19.749,7.569,21.564,18.044c0.735,4.206,4.644,7.093,8.88,6.56c1.199-0.079,2.401-0.079,3.6,0
			c16.016,0,29,12.984,29,29S142.766,109.149,126.75,109.149z"/>
	</g>
</g>
<g>
	<g>
		<path d="M397.39,44.269c0.079-1.386,0.079-2.774,0-4.16c-0.081-20.854-17.052-37.694-37.906-37.614
			c-15.414,0.06-29.222,9.486-34.92,23.785c-24.727,0.518-44.428,20.906-44.054,45.669c0.376,24.853,20.827,44.696,45.68,44.32h56
			c20.851-0.39,37.438-17.608,37.048-38.459C418.968,63.372,410.487,50.352,397.39,44.269z M403.416,82.967
			c-2.118,9.936-10.828,17.084-20.986,17.222h-56c-16.016,0-29-12.984-29-29s12.984-29,29-29c1.199-0.079,2.401-0.079,3.6,0
			c4.048,0.42,7.766-2.265,8.64-6.24c2.005-11.849,13.236-19.829,25.086-17.824c11.849,2.005,19.829,13.236,17.824,25.086
			c-0.204,1.203-0.508,2.387-0.91,3.539c-1.413,4.186,0.836,8.725,5.023,10.138c0.32,0.108,0.646,0.196,0.977,0.262
			C398.424,59.654,405.921,71.213,403.416,82.967z"/>
	</g>
</g>
<g>
</g>
<g>
</g>
<g>
</g>
<g>
</g>
<g>
</g>
<g>
</g>
<g>
</g>
<g>
</g>
<g>
</g>
<g>
</g>
<g>
</g>
<g>
</g>
<g>
</g>
<g>
</g>
<g>
</g>
</svg>
