<?xml version="1.0" encoding="iso-8859-1"?>
<!-- Generator: Adobe Illustrator 19.0.0, SVG Export Plug-In . SVG Version: 6.00 Build 0)  -->
<svg version="1.1" id="Capa_1" xmlns="http://www.w3.org/2000/svg" xmlns:xlink="http://www.w3.org/1999/xlink" x="0px" y="0px"
	 viewBox="0 0 511.997 511.997" style="enable-background:new 0 0 511.997 511.997;" xml:space="preserve">
<g>
	<g>
		<path d="M246.678,173.473c-83.593,0-151.599,68.007-151.599,151.599c0,83.593,68.007,151.6,151.6,151.6
			s151.599-68.007,151.599-151.6C398.278,241.48,330.271,173.473,246.678,173.473z M246.679,456.672
			c-72.565,0-131.6-59.035-131.6-131.6c0-72.564,59.035-131.599,131.6-131.599c72.564,0,131.6,59.035,131.6,131.599
			S319.244,456.672,246.679,456.672z"/>
	</g>
</g>
<g>
	<g>
		<path d="M246.679,226.435c-13.366,0-26.333,2.63-38.543,7.817c-5.083,2.16-7.453,8.031-5.294,13.114
			c2.161,5.083,8.031,7.454,13.114,5.294c9.723-4.131,20.059-6.225,30.723-6.225c43.361,0,78.638,35.276,78.638,78.637
			s-35.276,78.638-78.638,78.638c-43.362,0-78.638-35.277-78.638-78.638c0-7.401,1.025-14.724,3.048-21.763
			c1.524-5.308-1.542-10.847-6.851-12.372c-5.305-1.527-10.848,1.542-12.372,6.851c-2.538,8.836-3.825,18.016-3.825,27.285
			c0,54.388,44.249,98.636,98.637,98.636s98.637-44.249,98.637-98.637S301.068,226.435,246.679,226.435z"/>
	</g>
</g>
<g>
	<g>
		<path d="M190.464,263.981c-0.13-0.64-0.32-1.27-0.57-1.87c-0.25-0.61-0.56-1.19-0.92-1.73c-0.36-0.55-0.78-1.06-1.24-1.52
			c-0.46-0.46-0.97-0.88-1.52-1.24c-0.54-0.36-1.13-0.67-1.73-0.92s-1.229-0.44-1.87-0.57c-1.29-0.26-2.619-0.26-3.909,0
			c-0.641,0.13-1.261,0.32-1.87,0.57c-0.601,0.25-1.181,0.56-1.721,0.92c-0.55,0.36-1.06,0.78-1.52,1.24
			c-0.47,0.46-0.88,0.97-1.25,1.52c-0.36,0.54-0.67,1.12-0.92,1.73c-0.25,0.6-0.44,1.23-0.57,1.87c-0.13,0.64-0.189,1.3-0.189,1.95
			c0,2.63,1.06,5.21,2.93,7.07c0.46,0.46,0.97,0.88,1.519,1.25c0.54,0.36,1.12,0.66,1.721,0.91c0.609,0.25,1.229,0.45,1.87,0.58
			c0.649,0.13,1.31,0.19,1.96,0.19c0.649,0,1.31-0.06,1.949-0.19c0.641-0.13,1.271-0.32,1.87-0.58c0.601-0.25,1.19-0.55,1.73-0.91
			c0.55-0.37,1.06-0.79,1.52-1.25c0.46-0.46,0.88-0.97,1.24-1.52c0.36-0.54,0.67-1.12,0.92-1.72c0.25-0.61,0.44-1.24,0.57-1.87
			c0.13-0.65,0.2-1.31,0.2-1.96S190.594,264.621,190.464,263.981z"/>
	</g>
</g>
<g>
	<g>
		<path d="M94.31,38.206C49.359,31.692,7.512,62.948,0.997,107.882c-3.185,21.961,1.382,50.945,11.918,75.643
			c6.372,14.937,14.294,26.93,23.323,35.563L1.776,416.656c-1.746,10.008,0.575,20.05,6.536,28.276
			c5.962,8.227,14.781,13.561,24.835,15.019c1.823,0.264,3.642,0.395,5.447,0.395c8.158,0,16.039-2.668,22.631-7.74
			c8.053-6.194,13.131-15.164,14.3-25.254l23.078-199.216c11.111-5.713,22.114-14.965,32.467-27.476
			c17.117-20.687,29.729-47.181,32.914-69.142C170.502,86.582,139.245,44.722,94.31,38.206z M55.658,425.05
			c-0.542,4.677-2.896,8.834-6.627,11.705c-3.732,2.872-8.357,4.082-13.014,3.404c-4.66-0.676-8.748-3.148-11.511-6.961
			c-2.763-3.813-3.839-8.467-3.029-13.105l32.94-188.842c3.71,1.538,7.528,2.607,11.435,3.174c2.23,0.323,4.475,0.483,6.736,0.483
			c1.702,0,3.413-0.097,5.128-0.278L55.658,425.05z M144.191,128.646c-2.647,18.253-13.846,41.516-28.529,59.262
			c-4.655,5.626-9.43,10.433-14.21,14.371c-7.229,5.954-14.471,9.906-21.334,11.628c-3.948,0.991-7.772,1.25-11.394,0.724
			c-3.624-0.525-7.217-1.861-10.721-3.933c-6.092-3.602-11.913-9.448-17.153-17.209c-3.465-5.133-6.677-11.098-9.542-17.813
			c-9.038-21.185-13.168-46.67-10.521-64.924c4.496-31.002,31.21-53.403,61.661-53.403c2.966,0,5.97,0.212,8.988,0.65
			C125.46,62.931,149.124,94.624,144.191,128.646z"/>
	</g>
</g>
<g>
	<g>
		<path d="M86.317,79.932c-11.61-1.683-23.171,1.253-32.567,8.271c-9.396,7.016-15.498,17.27-17.182,28.876
			c-0.792,5.466,2.996,10.539,8.462,11.332c0.487,0.071,0.971,0.105,1.448,0.105c4.887,0,9.162-3.587,9.884-8.566
			c0.916-6.319,4.238-11.903,9.354-15.723c5.115-3.82,11.412-5.421,17.73-4.503c5.472,0.795,10.54-2.996,11.332-8.461
			C95.571,85.798,91.783,80.725,86.317,79.932z"/>
	</g>
</g>
<g>
	<g>
		<path d="M467.396,146.754c-0.13-0.64-0.319-1.27-0.569-1.87c-0.25-0.61-0.56-1.19-0.92-1.73c-0.37-0.55-0.79-1.06-1.25-1.52
			c-0.46-0.46-0.971-0.88-1.521-1.24c-0.54-0.36-1.12-0.67-1.72-0.92c-0.61-0.25-1.24-0.44-1.88-0.57c-1.29-0.26-2.61-0.26-3.9,0
			c-0.64,0.13-1.27,0.32-1.87,0.57c-0.609,0.25-1.189,0.56-1.729,0.92c-0.55,0.36-1.061,0.78-1.521,1.24
			c-0.46,0.46-0.88,0.97-1.239,1.52c-0.36,0.54-0.671,1.12-0.921,1.73c-0.25,0.6-0.449,1.23-0.569,1.87c-0.13,0.64-0.2,1.3-0.2,1.95
			c0,0.65,0.07,1.31,0.2,1.96c0.12,0.63,0.319,1.26,0.569,1.87c0.25,0.6,0.561,1.18,0.921,1.72c0.359,0.55,0.779,1.06,1.239,1.52
			c0.46,0.46,0.971,0.88,1.521,1.25c0.54,0.36,1.12,0.67,1.729,0.92c0.601,0.25,1.23,0.44,1.87,0.57c0.641,0.13,1.3,0.19,1.95,0.19
			c0.65,0,1.31-0.06,1.95-0.19c0.64-0.13,1.27-0.32,1.88-0.57c0.6-0.25,1.18-0.56,1.72-0.92c0.55-0.37,1.061-0.79,1.521-1.25
			c0.46-0.46,0.88-0.97,1.25-1.52c0.359-0.54,0.67-1.12,0.92-1.72c0.25-0.61,0.439-1.24,0.569-1.87c0.131-0.65,0.19-1.31,0.19-1.96
			C467.586,148.054,467.526,147.394,467.396,146.754z"/>
	</g>
</g>
<g>
	<g>
		<path d="M511.619,426.88l-22.497-143.559v-0.001l-5.01-31.969l-7.923-47.949l-2.439-15.726c-0.847-5.458-5.957-9.194-11.415-8.349
			c-5.457,0.847-9.195,5.957-8.349,11.415l2.455,15.822l7.926,47.966l3.449,22.009l-31.174,4.885c-0.002,0-0.004,0.001-0.006,0.001
			l-17.393,2.726l-20.751-132.422c-5.004-31.927,1.674-64.603,18.802-92.009c3.179-5.086,8.273-4.49,9.758-4.188
			c1.485,0.304,6.405,1.755,7.333,7.68l1.54,9.825l3.666,24.88l1.833,11.817c0.846,5.458,5.953,9.194,11.415,8.349
			c5.457-0.847,9.195-5.957,8.349-11.415l-1.821-11.742l-3.668-24.895l-1.554-9.916c-1.914-12.213-10.978-21.703-23.088-24.177
			c-12.108-2.476-24.17,2.699-30.722,13.183c-19.677,31.485-27.349,69.025-21.601,105.705l21.036,134.232
			c1.403,8.948,9.152,15.356,17.939,15.356c0.932,0,1.874-0.072,2.822-0.221l9.328-1.462l20.95,133.68
			c2.376,15.16,15.501,26.014,30.387,26.014c1.578,0,3.177-0.122,4.783-0.374c8.122-1.272,15.263-5.632,20.105-12.275
			C510.926,443.132,512.892,435.001,511.619,426.88z M489.925,437.996c-1.696,2.326-4.196,3.853-7.041,4.298c0,0,0,0-0.001,0
			c-5.863,0.922-11.396-3.109-12.315-8.979l-20.949-133.679l12.843-2.013l8.453-1.324l20.948,133.679
			C492.308,432.822,491.62,435.669,489.925,437.996z"/>
	</g>
</g>
<g>
</g>
<g>
</g>
<g>
</g>
<g>
</g>
<g>
</g>
<g>
</g>
<g>
</g>
<g>
</g>
<g>
</g>
<g>
</g>
<g>
</g>
<g>
</g>
<g>
</g>
<g>
</g>
<g>
</g>
</svg>
