<?xml version="1.0" encoding="iso-8859-1"?>
<!-- Generator: Adobe Illustrator 19.0.0, SVG Export Plug-In . SVG Version: 6.00 Build 0)  -->
<svg version="1.1" id="Capa_1" xmlns="http://www.w3.org/2000/svg" xmlns:xlink="http://www.w3.org/1999/xlink" x="0px" y="0px"
	 viewBox="0 0 512 512" style="enable-background:new 0 0 512 512;" xml:space="preserve">
<g>
	<g>
		<g>
			<path d="M415.999,234.681H189.793c2.655-7.372,2.904-15.728,0.408-23.79L134.022,29.087C127.918,9.348,108.448-3.172,89.74,0.703
				C80.844,2.515,73.395,7.817,68.77,15.619c-5.063,8.531-6.156,19.301-2.99,29.53l56.179,181.803
				c4.505,14.563,16.362,24.697,29.747,27.723c-1.51,3.713-2.382,7.755-2.382,12.005c0,3.758,0.77,7.313,1.965,10.666h-12.632
				c-5.896,0-10.667,4.771-10.667,10.666c0,33.353,8.729,56.726,17.969,81.465c11.573,31.019,24.699,66.163,24.699,131.858
				c0,5.896,4.771,10.666,10.667,10.666h192.006c5.896,0,10.667-4.771,10.667-10.666c0-25.957-12.98-64.674-31.324-87.225
				c42.875-23.117,70.416-67.182,73.402-117.214c12.692-4.25,21.924-16.112,21.924-30.216
				C448,249.034,433.645,234.681,415.999,234.681z M142.344,220.635L86.167,38.833c-1.385-4.49-1.031-9,0.958-12.365
				c1.073-1.813,3.146-4.125,6.896-4.896c0.813-0.167,1.646-0.24,2.49-0.24c7.156,0,14.625,5.906,17.146,14.031l56.177,181.802
				c1.385,4.49,1.031,9-0.958,12.365c-1.073,1.813-3.146,4.125-6.896,4.896C154.271,236.052,145.167,229.719,142.344,220.635z
				 M330.292,401.063c-3.615,1.458-6.156,4.76-6.625,8.635c-0.458,3.875,1.219,7.688,4.396,9.948
				c15.917,11.375,30.313,45.74,33.802,71.021H191.885c-1.333-62.75-14.365-97.667-25.938-128.656
				c-7.802-20.896-14.667-39.302-16.271-63.344h255.219C401.063,344.615,372.635,384.104,330.292,401.063z M416,277.333H181.333
				c-5.885,0-10.667-4.781-10.667-10.667c0-5.885,4.781-10.667,10.667-10.667H416c5.885,0,10.667,4.781,10.667,10.667
				C426.667,272.552,421.885,277.333,416,277.333z"/>
			<path d="M318.396,382.031c1.323,0,2.667-0.24,3.969-0.76c21.198-8.49,38.917-24.708,49.896-45.656
				c2.74-5.208,0.719-11.656-4.5-14.396c-5.188-2.75-11.667-0.729-14.396,4.5c-8.625,16.448-22.448,29.146-38.938,35.74
				c-5.469,2.198-8.125,8.406-5.938,13.875C310.167,379.5,314.167,382.031,318.396,382.031z"/>
		</g>
	</g>
</g>
<g>
</g>
<g>
</g>
<g>
</g>
<g>
</g>
<g>
</g>
<g>
</g>
<g>
</g>
<g>
</g>
<g>
</g>
<g>
</g>
<g>
</g>
<g>
</g>
<g>
</g>
<g>
</g>
<g>
</g>
</svg>
